<svg version="1.0" preserveAspectRatio="xMidYMid meet" viewBox="5.0625 0 80.1 31.8375" zoomAndPan="magnify" xmlns:xlink="http://www.w3.org/1999/xlink" xmlns="http://www.w3.org/2000/svg" style="max-height: 500px" width="80.1" height="31.8375"><defs><g/><clipPath id="f38ab773b6"><path clip-rule="nonzero" d="M 0.632812 0 L 40 0 L 40 31.007812 L 0.632812 31.007812 Z M 0.632812 0"/></clipPath></defs><path fill-rule="nonzero" fill-opacity="1" d="M 23.035156 6.050781 C 22.996094 6.050781 22.949219 6.066406 22.898438 6.097656 C 22.835938 6.121094 22.800781 6.136719 22.789062 6.15625 C 21.640625 8.808594 20.585938 11.488281 19.628906 14.195312 C 18.660156 16.898438 17.621094 19.566406 16.511719 22.203125 C 16.582031 22.355469 16.6875 22.425781 16.816406 22.402344 C 16.9375 22.371094 17.054688 22.371094 17.152344 22.402344 C 17.5 22.460938 17.839844 22.484375 18.175781 22.460938 C 18.503906 22.445312 18.839844 22.449219 19.183594 22.476562 C 20.253906 22.539062 21.324219 22.5625 22.390625 22.554688 C 22.464844 22.53125 22.554688 22.542969 22.652344 22.585938 C 22.742188 22.625 22.84375 22.621094 22.941406 22.570312 C 23.117188 22.042969 23.308594 21.515625 23.523438 20.996094 C 23.730469 20.476562 23.921875 19.957031 24.105469 19.4375 C 25.113281 19.335938 26.121094 19.324219 27.128906 19.390625 C 28.128906 19.464844 29.128906 19.46875 30.136719 19.40625 C 30.242188 19.703125 30.347656 19.988281 30.460938 20.261719 C 30.574219 20.53125 30.6875 20.792969 30.8125 21.058594 C 30.914062 21.300781 31.003906 21.558594 31.085938 21.820312 C 31.167969 22.078125 31.269531 22.292969 31.390625 22.476562 C 31.789062 22.460938 32.171875 22.460938 32.539062 22.476562 C 32.902344 22.488281 33.265625 22.503906 33.621094 22.523438 C 33.664062 22.445312 33.695312 22.363281 33.714844 22.28125 C 33.726562 22.199219 33.710938 22.09375 33.667969 21.957031 C 33.546875 21.675781 33.417969 21.390625 33.285156 21.101562 C 33.15625 20.808594 33.042969 20.515625 32.949219 20.214844 C 32.839844 19.910156 32.726562 19.597656 32.613281 19.269531 C 32.492188 18.945312 32.355469 18.636719 32.203125 18.335938 C 32.089844 18.121094 32.003906 17.910156 31.941406 17.695312 C 31.871094 17.472656 31.789062 17.25 31.695312 17.039062 C 31.507812 16.589844 31.316406 16.148438 31.132812 15.707031 C 30.949219 15.261719 30.757812 14.816406 30.550781 14.378906 C 30.460938 14.1875 30.382812 13.976562 30.320312 13.753906 C 30.261719 13.519531 30.183594 13.304688 30.09375 13.109375 C 29.964844 12.796875 29.855469 12.46875 29.773438 12.132812 C 29.691406 11.789062 29.570312 11.46875 29.40625 11.167969 C 29.191406 10.753906 29.019531 10.324219 28.886719 9.886719 C 28.746094 9.4375 28.578125 9 28.382812 8.570312 C 28.222656 8.167969 28.070312 7.757812 27.921875 7.347656 C 27.78125 6.945312 27.617188 6.523438 27.433594 6.097656 C 27.3125 6.089844 27.191406 6.078125 27.066406 6.066406 C 26.9375 6.046875 26.808594 6.042969 26.6875 6.050781 C 26.390625 6.082031 26.105469 6.097656 25.832031 6.097656 C 25.554688 6.097656 25.273438 6.097656 24.972656 6.097656 C 24.660156 6.097656 24.339844 6.09375 24.011719 6.082031 C 23.6875 6.0625 23.363281 6.050781 23.035156 6.050781 Z M 26.992188 11.292969 C 27.441406 12.238281 27.828125 13.214844 28.152344 14.210938 C 28.480469 15.199219 28.847656 16.175781 29.253906 17.128906 C 28.542969 17.171875 27.828125 17.175781 27.113281 17.144531 C 26.402344 17.113281 25.675781 17.09375 24.945312 17.082031 C 25.304688 16.117188 25.644531 15.152344 25.96875 14.179688 C 26.296875 13.203125 26.636719 12.238281 26.992188 11.292969 Z M 26.992188 11.292969" fill="#FFFFFF"/><g fill-opacity="1" fill="#FFFFFF"><g transform="translate(32.903604, 15.701458)"><g><path d="M 1.875 0 L 0.78125 0 L 0.78125 -6 L 2.328125 -6 L 3.84375 -1.59375 L 3.9375 -1.59375 L 5.453125 -6 L 6.96875 -6 L 6.96875 0 L 5.84375 0 L 5.84375 -3.96875 L 5.734375 -3.984375 L 4.34375 0 L 3.359375 0 L 1.96875 -3.984375 L 1.875 -3.96875 Z M 1.875 0"/></g></g></g><g fill-opacity="1" fill="#FFFFFF"><g transform="translate(40.644423, 15.701458)"><g><path d="M 5.765625 0 L 4.515625 0 L 4.0625 -1.390625 L 1.765625 -1.390625 L 1.3125 0 L 0.09375 0 L 2.15625 -6 L 3.6875 -6 Z M 2.859375 -4.75 L 2.078125 -2.375 L 3.734375 -2.375 L 2.953125 -4.75 Z M 2.859375 -4.75"/></g></g></g><g fill-opacity="1" fill="#FFFFFF"><g transform="translate(46.490038, 15.701458)"><g><path d="M 2.9375 -6 C 3.914062 -6 4.660156 -5.742188 5.171875 -5.234375 C 5.679688 -4.734375 5.9375 -3.988281 5.9375 -3 C 5.9375 -2.007812 5.679688 -1.257812 5.171875 -0.75 C 4.660156 -0.25 3.914062 0 2.9375 0 L 0.78125 0 L 0.78125 -6 Z M 2.875 -1 C 3.488281 -1 3.945312 -1.15625 4.25 -1.46875 C 4.5625 -1.789062 4.71875 -2.300781 4.71875 -3 C 4.71875 -3.707031 4.5625 -4.21875 4.25 -4.53125 C 3.945312 -4.84375 3.488281 -5 2.875 -5 L 1.96875 -5 L 1.96875 -1 Z M 2.875 -1"/></g></g></g><g fill-opacity="1" fill="#FFFFFF"><g transform="translate(52.901752, 15.701458)"><g><path d="M 1.96875 -2.640625 L 1.96875 -1 L 4.828125 -1 L 4.828125 0 L 0.78125 0 L 0.78125 -6 L 4.765625 -6 L 4.765625 -5 L 1.96875 -5 L 1.96875 -3.609375 L 4.40625 -3.609375 L 4.40625 -2.640625 Z M 1.96875 -2.640625"/></g></g></g><g fill-opacity="1" fill="#FFFFFF"><g transform="translate(58.058201, 15.701458)"><g><path d="M 3.1875 0.09375 C 2.351562 0.09375 1.738281 -0.101562 1.34375 -0.5 C 0.945312 -0.894531 0.75 -1.476562 0.75 -2.25 L 0.75 -6 L 1.90625 -6 L 1.90625 -2.25 C 1.90625 -1.8125 2.007812 -1.484375 2.21875 -1.265625 C 2.425781 -1.046875 2.75 -0.9375 3.1875 -0.9375 C 4.03125 -0.9375 4.453125 -1.375 4.453125 -2.25 L 4.453125 -6 L 5.625 -6 L 5.625 -2.25 C 5.625 -1.476562 5.421875 -0.894531 5.015625 -0.5 C 4.617188 -0.101562 4.007812 0.09375 3.1875 0.09375 Z M 3.1875 0.09375"/></g></g></g><g fill-opacity="1" fill="#FFFFFF"><g transform="translate(64.416575, 15.701458)"><g><path d="M 2.65625 0.09375 C 2.238281 0.09375 1.867188 0.0390625 1.546875 -0.0625 C 1.222656 -0.164062 0.953125 -0.300781 0.734375 -0.46875 C 0.523438 -0.632812 0.359375 -0.816406 0.234375 -1.015625 L 0.890625 -1.8125 L 1 -1.8125 C 1.175781 -1.550781 1.40625 -1.335938 1.6875 -1.171875 C 1.96875 -1.015625 2.289062 -0.9375 2.65625 -0.9375 C 2.976562 -0.9375 3.21875 -1.003906 3.375 -1.140625 C 3.539062 -1.273438 3.625 -1.457031 3.625 -1.6875 C 3.625 -1.832031 3.597656 -1.953125 3.546875 -2.046875 C 3.492188 -2.148438 3.40625 -2.234375 3.28125 -2.296875 C 3.164062 -2.367188 3.003906 -2.425781 2.796875 -2.46875 L 2.03125 -2.65625 C 1.488281 -2.78125 1.082031 -2.984375 0.8125 -3.265625 C 0.550781 -3.546875 0.421875 -3.914062 0.421875 -4.375 C 0.421875 -4.71875 0.503906 -5.015625 0.671875 -5.265625 C 0.847656 -5.523438 1.097656 -5.726562 1.421875 -5.875 C 1.742188 -6.019531 2.128906 -6.09375 2.578125 -6.09375 C 3.046875 -6.09375 3.441406 -6.03125 3.765625 -5.90625 C 4.097656 -5.78125 4.378906 -5.59375 4.609375 -5.34375 L 4.015625 -4.546875 L 3.921875 -4.546875 C 3.742188 -4.722656 3.546875 -4.851562 3.328125 -4.9375 C 3.109375 -5.03125 2.859375 -5.078125 2.578125 -5.078125 C 2.253906 -5.078125 2.003906 -5.019531 1.828125 -4.90625 C 1.660156 -4.789062 1.578125 -4.628906 1.578125 -4.421875 C 1.578125 -4.234375 1.632812 -4.082031 1.75 -3.96875 C 1.875 -3.863281 2.082031 -3.773438 2.375 -3.703125 L 3.171875 -3.546875 C 3.753906 -3.421875 4.175781 -3.210938 4.4375 -2.921875 C 4.695312 -2.628906 4.828125 -2.242188 4.828125 -1.765625 C 4.828125 -1.390625 4.742188 -1.0625 4.578125 -0.78125 C 4.421875 -0.507812 4.179688 -0.296875 3.859375 -0.140625 C 3.535156 0.015625 3.132812 0.09375 2.65625 0.09375 Z M 2.65625 0.09375"/></g></g></g><path stroke-miterlimit="4" stroke-opacity="1" stroke-width="2" stroke="#FFFFFF" d="M 0.0000181833 1.002116 L 65.04764 1.002116" stroke-linejoin="miter" fill="none" transform="matrix(0.738281, 0, 0, 0.738281, 30.55858, 17.275782)" stroke-linecap="butt"/><g fill-opacity="1" fill="#FFFFFF"><g transform="translate(35.769746, 23.862884)"><g><path d="M 1.921875 0.046875 C 1.597656 0.046875 1.3125 -0.0195312 1.0625 -0.15625 C 0.8125 -0.289062 0.617188 -0.488281 0.484375 -0.75 C 0.347656 -1.019531 0.28125 -1.351562 0.28125 -1.75 C 0.28125 -2.144531 0.347656 -2.476562 0.484375 -2.75 C 0.617188 -3.019531 0.8125 -3.222656 1.0625 -3.359375 C 1.3125 -3.492188 1.597656 -3.5625 1.921875 -3.5625 C 2.253906 -3.5625 2.539062 -3.492188 2.78125 -3.359375 C 3.019531 -3.234375 3.1875 -3.035156 3.28125 -2.765625 L 2.78125 -2.453125 L 2.71875 -2.453125 C 2.644531 -2.640625 2.539062 -2.769531 2.40625 -2.84375 C 2.28125 -2.925781 2.117188 -2.96875 1.921875 -2.96875 C 1.628906 -2.96875 1.398438 -2.867188 1.234375 -2.671875 C 1.078125 -2.484375 1 -2.175781 1 -1.75 C 1 -1.332031 1.078125 -1.023438 1.234375 -0.828125 C 1.398438 -0.640625 1.628906 -0.546875 1.921875 -0.546875 C 2.378906 -0.546875 2.660156 -0.769531 2.765625 -1.21875 L 2.8125 -1.21875 L 3.328125 -0.953125 C 3.234375 -0.617188 3.066406 -0.367188 2.828125 -0.203125 C 2.597656 -0.0351562 2.296875 0.046875 1.921875 0.046875 Z M 1.921875 0.046875"/></g></g><g transform="translate(39.216006, 23.862884)"><g><path d="M 1.921875 0.046875 C 1.597656 0.046875 1.3125 -0.015625 1.0625 -0.140625 C 0.8125 -0.273438 0.617188 -0.476562 0.484375 -0.75 C 0.347656 -1.019531 0.28125 -1.351562 0.28125 -1.75 C 0.28125 -2.15625 0.347656 -2.492188 0.484375 -2.765625 C 0.617188 -3.035156 0.8125 -3.234375 1.0625 -3.359375 C 1.3125 -3.492188 1.597656 -3.5625 1.921875 -3.5625 C 2.242188 -3.5625 2.523438 -3.492188 2.765625 -3.359375 C 3.015625 -3.234375 3.207031 -3.035156 3.34375 -2.765625 C 3.476562 -2.492188 3.546875 -2.15625 3.546875 -1.75 C 3.546875 -1.351562 3.476562 -1.019531 3.34375 -0.75 C 3.207031 -0.476562 3.015625 -0.273438 2.765625 -0.140625 C 2.523438 -0.015625 2.242188 0.046875 1.921875 0.046875 Z M 1.921875 -0.546875 C 2.210938 -0.546875 2.4375 -0.640625 2.59375 -0.828125 C 2.75 -1.023438 2.828125 -1.332031 2.828125 -1.75 C 2.828125 -2.175781 2.75 -2.484375 2.59375 -2.671875 C 2.4375 -2.867188 2.210938 -2.96875 1.921875 -2.96875 C 1.617188 -2.96875 1.390625 -2.867188 1.234375 -2.671875 C 1.078125 -2.484375 1 -2.175781 1 -1.75 C 1 -1.332031 1.078125 -1.023438 1.234375 -0.828125 C 1.390625 -0.640625 1.617188 -0.546875 1.921875 -0.546875 Z M 1.921875 -0.546875"/></g></g><g transform="translate(43.044383, 23.862884)"><g><path d="M 1.125 0 L 0.453125 0 L 0.453125 -3.515625 L 1.25 -3.515625 L 2.65625 -1.25 L 2.71875 -1.265625 L 2.71875 -3.515625 L 3.390625 -3.515625 L 3.390625 0 L 2.6875 0 L 1.1875 -2.421875 L 1.125 -2.40625 Z M 1.125 0"/></g></g><g transform="translate(46.896792, 23.862884)"><g><path d="M 1.5625 0.046875 C 1.3125 0.046875 1.09375 0.0195312 0.90625 -0.03125 C 0.71875 -0.09375 0.5625 -0.171875 0.4375 -0.265625 C 0.3125 -0.367188 0.210938 -0.476562 0.140625 -0.59375 L 0.53125 -1.0625 L 0.578125 -1.0625 C 0.691406 -0.90625 0.828125 -0.78125 0.984375 -0.6875 C 1.148438 -0.59375 1.34375 -0.546875 1.5625 -0.546875 C 1.75 -0.546875 1.890625 -0.582031 1.984375 -0.65625 C 2.078125 -0.738281 2.125 -0.851562 2.125 -1 C 2.125 -1.082031 2.109375 -1.148438 2.078125 -1.203125 C 2.046875 -1.253906 1.992188 -1.300781 1.921875 -1.34375 C 1.847656 -1.382812 1.753906 -1.421875 1.640625 -1.453125 L 1.1875 -1.546875 C 0.875 -1.617188 0.640625 -1.738281 0.484375 -1.90625 C 0.328125 -2.070312 0.25 -2.289062 0.25 -2.5625 C 0.25 -2.757812 0.296875 -2.929688 0.390625 -3.078125 C 0.492188 -3.234375 0.640625 -3.351562 0.828125 -3.4375 C 1.015625 -3.519531 1.242188 -3.5625 1.515625 -3.5625 C 1.785156 -3.5625 2.015625 -3.523438 2.203125 -3.453125 C 2.398438 -3.378906 2.566406 -3.269531 2.703125 -3.125 L 2.359375 -2.65625 L 2.296875 -2.65625 C 2.191406 -2.757812 2.078125 -2.835938 1.953125 -2.890625 C 1.828125 -2.941406 1.679688 -2.96875 1.515625 -2.96875 C 1.316406 -2.96875 1.164062 -2.929688 1.0625 -2.859375 C 0.96875 -2.796875 0.921875 -2.707031 0.921875 -2.59375 C 0.921875 -2.476562 0.957031 -2.390625 1.03125 -2.328125 C 1.101562 -2.265625 1.222656 -2.210938 1.390625 -2.171875 L 1.859375 -2.078125 C 2.203125 -2.003906 2.445312 -1.878906 2.59375 -1.703125 C 2.75 -1.535156 2.828125 -1.3125 2.828125 -1.03125 C 2.828125 -0.8125 2.78125 -0.617188 2.6875 -0.453125 C 2.59375 -0.296875 2.445312 -0.171875 2.25 -0.078125 C 2.0625 0.00390625 1.832031 0.046875 1.5625 0.046875 Z M 1.5625 0.046875"/></g></g><g transform="translate(49.915273, 23.862884)"><g><path d="M 1.859375 0.046875 C 1.378906 0.046875 1.019531 -0.0664062 0.78125 -0.296875 C 0.550781 -0.523438 0.4375 -0.863281 0.4375 -1.3125 L 0.4375 -3.515625 L 1.109375 -3.515625 L 1.109375 -1.328125 C 1.109375 -1.066406 1.171875 -0.867188 1.296875 -0.734375 C 1.421875 -0.609375 1.609375 -0.546875 1.859375 -0.546875 C 2.359375 -0.546875 2.609375 -0.804688 2.609375 -1.328125 L 2.609375 -3.515625 L 3.296875 -3.515625 L 3.296875 -1.3125 C 3.296875 -0.863281 3.175781 -0.523438 2.9375 -0.296875 C 2.707031 -0.0664062 2.347656 0.046875 1.859375 0.046875 Z M 1.859375 0.046875"/></g></g><g transform="translate(53.64031, 23.862884)"><g><path d="M 1.15625 -3.515625 L 1.15625 -0.578125 L 2.734375 -0.578125 L 2.734375 0 L 0.453125 0 L 0.453125 -3.515625 Z M 1.15625 -3.515625"/></g></g><g transform="translate(56.485758, 23.862884)"><g><path d="M 2.8125 -3.515625 L 2.8125 -2.921875 L 1.796875 -2.921875 L 1.796875 0 L 1.109375 0 L 1.109375 -2.921875 L 0.09375 -2.921875 L 0.09375 -3.515625 Z M 2.8125 -3.515625"/></g></g><g transform="translate(59.398496, 23.862884)"><g><path d="M 3.375 0 L 2.640625 0 L 2.375 -0.8125 L 1.03125 -0.8125 L 0.765625 0 L 0.046875 0 L 1.265625 -3.515625 L 2.15625 -3.515625 Z M 1.671875 -2.78125 L 1.21875 -1.390625 L 2.1875 -1.390625 L 1.734375 -2.78125 Z M 1.671875 -2.78125"/></g></g><g transform="translate(62.823127, 23.862884)"><g><path d="M 1.125 0 L 0.453125 0 L 0.453125 -3.515625 L 1.25 -3.515625 L 2.65625 -1.25 L 2.71875 -1.265625 L 2.71875 -3.515625 L 3.390625 -3.515625 L 3.390625 0 L 2.6875 0 L 1.1875 -2.421875 L 1.125 -2.40625 Z M 1.125 0"/></g></g><g transform="translate(66.675536, 23.862884)"><g><path d="M 2.8125 -3.515625 L 2.8125 -2.921875 L 1.796875 -2.921875 L 1.796875 0 L 1.109375 0 L 1.109375 -2.921875 L 0.09375 -2.921875 L 0.09375 -3.515625 Z M 2.8125 -3.515625"/></g></g></g><path stroke-miterlimit="4" stroke-opacity="1" stroke-width="2" stroke="#FFFFFF" d="M -0.00167525 1.001057 L 91.998329 1.001057" stroke-linejoin="miter" fill="none" transform="matrix(0.738281, 0.000000000000000007, -0.000000000000000007, 0.738281, 10.661393, 2.362501)" stroke-linecap="butt"/><path stroke-miterlimit="4" stroke-opacity="1" stroke-width="2" stroke="#FFFFFF" d="M 0.0000996283 1.000961 L 20.201159 1.000961" stroke-linejoin="miter" fill="none" transform="matrix(0, -0.738281, 0.738281, 0, 77.100853, 17.56648)" stroke-linecap="butt"/><path stroke-miterlimit="4" stroke-opacity="1" stroke-width="2" stroke="#FFFFFF" d="M 0.0000990449 0.999282 L 34.201159 0.999282" stroke-linejoin="miter" fill="none" transform="matrix(0, -0.738281, 0.738281, 0, 10.65678, 27.902417)" stroke-linecap="butt"/><path stroke-miterlimit="4" stroke-opacity="1" stroke-width="2" stroke="#FFFFFF" d="M -0.00167525 0.998942 L 91.998329 0.998942" stroke-linejoin="miter" fill="none" transform="matrix(0.738281, 0, 0, 0.738281, 10.661393, 27.16875)" stroke-linecap="butt"/><g clip-path="url(#f38ab773b6)"><path stroke-miterlimit="4" stroke-opacity="1" stroke-width="4" stroke="#000000" d="M -0.000213636 2.00126 L 26.722391 2.000117" stroke-linejoin="miter" fill="none" transform="matrix(0.260811, -0.690679, 0.690679, 0.260811, 14.527984, 22.880246)" stroke-linecap="butt"/></g></svg>